<!DOCTYPE svg PUBLIC "-//W3C//DTD SVG 1.1//EN" "http://www.w3.org/Graphics/SVG/1.1/DTD/svg11.dtd">
<!-- Uploaded to: SVG Repo, www.svgrepo.com, Transformed by: SVG Repo Mixer Tools -->
<svg fill="#ffffff" height="800px" width="800px" version="1.1" xmlns="http://www.w3.org/2000/svg" viewBox="0 0 240.129 240.129" xmlns:xlink="http://www.w3.org/1999/xlink" enable-background="new 0 0 240.129 240.129">
<g id="SVGRepo_bgCarrier" stroke-width="0"/>
<g id="SVGRepo_tracerCarrier" stroke-linecap="round" stroke-linejoin="round"/>
<g id="SVGRepo_iconCarrier"> <g> <path d="m223.956,63.902c-10.43-10.43-24.297-16.173-39.046-16.173-10.119,0-19.822,2.704-28.285,7.769l-2.11-6.955h-119.236l-10.574,34.856h-24.705v35h14.087l-3.032,9.995-.216,.709v49.243h14.161v14.053h38v-14.053h63v14.053h39v-14.053h13.955v-20.504c1.965,0.209 3.951,0.325 5.955,0.325 14.749,0 28.616-5.743 39.046-16.173s16.173-24.297 16.173-39.046c-2.84217e-14-14.749-5.743-28.616-16.173-39.046zm-170.582,1.458h83.046l2.117,7.599c-5.751,8.855-8.847,19.182-8.847,29.99 0,3.642 0.353,7.23 1.038,10.726h-90.813l13.459-48.315zm14.626,87.039h-35v-18h35v18zm89,0h-34v-18h16.522c1.87,2.686 3.978,5.233 6.341,7.596 3.379,3.379 7.123,6.257 11.137,8.616v1.788zm52.813-24.546c-6.651,6.652-15.496,10.315-24.903,10.315-9.408,0-18.253-3.663-24.904-10.315-6.652-6.651-10.315-15.496-10.315-24.903 0-9.408 3.663-18.253 10.315-24.904 6.651-6.652 15.496-10.315 24.904-10.315 9.407,0 18.252,3.663 24.903,10.315 6.652,6.651 10.315,15.496 10.315,24.904 0.001,9.406-3.662,18.251-10.315,24.903z"/> <path d="m188.584,81.95l-3.337-2.922-3.299,2.965c-1.478,1.329-14.438,13.328-14.438,25.412 0,9.805 7.977,17.781 17.78,17.781 9.805,0 17.781-7.977 17.781-17.781 0.001-12.415-13.004-24.157-14.487-25.455z"/> </g> </g>
</svg>